External Loads File
version=1
nRows=69
nColumns=13
Range=5.000000e-03-10 seconds
endheader
time 	forceRightX 	forceRightY 	forceRightZ 	pointRightX 	pointRightY 	pointRightZ 	forceLeftX 	forceLeftY 	forceLeftZ 	pointLeftX 	pointLeftY 	pointLeftZ 		
0.005000 59.194084 241.058253 -0.000000 0.145372 0.241475 -0.124140 -130.934427 118.072299 -0.000000 0.428203 0.401047 -0.367842
0.010000 60.157216 240.443510 -0.000000 0.145354 0.241479 -0.124145 -131.208291 117.884817 -0.000000 0.428212 0.401058 -0.367828
0.015000 60.994667 239.832198 -0.000000 0.145347 0.241462 -0.124141 -131.500039 117.684531 -0.000000 0.428144 0.401072 -0.367928
0.020000 61.737328 239.197685 -0.000000 0.145331 0.241457 -0.124123 -131.753259 117.515657 -0.000000 0.428149 0.401082 -0.367926
0.025000 62.286603 238.559720 -0.000000 0.145242 0.241700 -0.124088 -131.982748 117.337756 -0.000000 0.428105 0.401408 -0.367879
0.030000 62.750964 237.904143 -0.000000 0.145240 0.241743 -0.124048 -132.125719 117.208175 -0.000000 0.428085 0.401401 -0.367868
0.035000 62.999378 237.295135 -0.000000 0.145228 0.241744 -0.124055 -132.260338 117.039876 -0.000000 0.427922 0.401436 -0.368048
0.040000 63.270189 236.703916 -0.000000 0.145244 0.241734 -0.124054 -132.294332 116.944529 -0.000000 0.428065 0.401460 -0.367864
0.045000 63.440357 236.182765 -0.000000 0.145247 0.241722 -0.124072 -132.315160 116.827813 -0.000000 0.428043 0.401484 -0.367853
0.050000 63.573796 235.713064 -0.000000 0.145266 0.241707 -0.124074 -132.311595 116.701174 -0.000000 0.428016 0.401514 -0.367855
0.055000 63.673488 235.283585 -0.000000 0.145269 0.241664 -0.124070 -132.291363 116.556290 -0.000000 0.427994 0.401564 -0.367849
0.060000 63.748636 234.884910 -0.000000 0.145266 0.241657 -0.124070 -132.251380 116.407987 -0.000000 0.427815 0.401594 -0.368046
0.065000 63.879707 234.497171 -0.000000 0.145285 0.241611 -0.124076 -132.150490 116.321078 -0.000000 0.427896 0.401619 -0.367844
0.070000 63.879298 234.177400 -0.000000 0.145325 0.241594 -0.124078 -132.075910 116.208254 -0.000000 0.427618 0.401651 -0.368111
0.075000 64.052172 233.843498 -0.000000 0.145356 0.241591 -0.124067 -131.868632 116.253246 -0.000000 0.427832 0.401683 -0.367870
0.080000 64.106428 233.570908 -0.000000 0.145383 0.241559 -0.124055 -131.674080 116.292588 -0.000000 0.427797 0.401706 -0.367874
0.085000 64.146877 233.323170 -0.000000 0.145420 0.241551 -0.124060 -131.449599 116.377999 -0.000000 0.427808 0.401741 -0.367849
0.090000 64.123843 233.105064 -0.000000 0.145442 0.241536 -0.124058 -131.231844 116.468318 -0.000000 0.427764 0.401771 -0.367847
0.095000 64.060129 232.904816 -0.000000 0.145456 0.241522 -0.124055 -131.025171 116.556036 -0.000000 0.427739 0.401789 -0.367841
0.100000 63.948223 232.722443 -0.000000 0.145446 0.241507 -0.124056 -130.856640 116.618220 -0.000000 0.427705 0.401804 -0.367833
0.105000 63.809457 232.556090 -0.000000 0.145439 0.241506 -0.124067 -130.742367 116.660417 -0.000000 0.427690 0.401814 -0.367842
0.110000 63.640694 232.421060 -0.000000 0.145422 0.241490 -0.124065 -130.703173 116.681105 -0.000000 0.427686 0.401817 -0.367838
0.115000 63.458846 232.331423 -0.000000 0.145413 0.241476 -0.124084 -130.732956 116.688767 -0.000000 0.427693 0.401818 -0.367837
0.120000 63.314618 232.284221 -0.000000 0.145391 0.241482 -0.124080 -130.788546 116.712896 -0.000000 0.427702 0.401800 -0.367844
0.125000 63.178505 232.283298 -0.000000 0.145377 0.241495 -0.124074 -130.852452 116.740450 -0.000000 0.427669 0.401792 -0.367865
0.130000 63.103976 232.296831 -0.000000 0.145355 0.241499 -0.124071 -130.872856 116.794629 -0.000000 0.427704 0.401786 -0.367871
0.135000 63.088246 232.305524 -0.000000 0.145345 0.241531 -0.124064 -130.859200 116.846061 -0.000000 0.427733 0.401787 -0.367868
0.140000 63.113234 232.293405 -0.000000 0.145325 0.241531 -0.124047 -130.854351 116.851499 -0.000000 0.427750 0.401776 -0.367874
0.145000 63.162830 232.240098 -0.000000 0.145318 0.241535 -0.124061 -130.893004 116.787618 -0.000000 0.427776 0.401787 -0.367874
0.150000 63.228716 232.134557 -0.000000 0.145315 0.241534 -0.124068 -130.986717 116.652219 -0.000000 0.427790 0.401790 -0.367863
0.155000 63.204897 232.015235 -0.000000 0.145320 0.241533 -0.124052 -131.183436 116.394114 -0.000000 0.427556 0.401815 -0.368119
0.160000 63.371796 231.820782 -0.000000 0.145312 0.241515 -0.124063 -131.326621 116.190623 -0.000000 0.427806 0.401820 -0.367889
0.165000 63.357754 231.654457 -0.000000 0.145329 0.241515 -0.124049 -131.579240 115.860374 -0.000000 0.427555 0.401845 -0.368138
0.170000 63.419819 231.436524 -0.000000 0.145344 0.241489 -0.124059 -131.786818 115.578519 -0.000000 0.427555 0.401862 -0.368134
0.175000 63.448381 231.187657 -0.000000 0.145367 0.241457 -0.124060 -131.977940 115.306545 -0.000000 0.427569 0.401909 -0.368126
0.180000 63.461615 230.901727 -0.000000 0.145389 0.241425 -0.124071 -132.116339 115.069476 -0.000000 0.427550 0.401934 -0.368131
0.185000 63.511784 230.575769 -0.000000 0.145419 0.241375 -0.124068 -132.153983 114.898534 -0.000000 0.427775 0.401988 -0.367866
0.190000 63.475432 230.265617 -0.000000 0.145442 0.241337 -0.124072 -132.143740 114.713383 -0.000000 0.427745 0.402034 -0.367877
0.195000 63.431776 229.967128 -0.000000 0.145481 0.241290 -0.124077 -132.047777 114.553658 -0.000000 0.427731 0.402060 -0.367862
0.200000 63.345527 229.691763 -0.000000 0.145521 0.241263 -0.124064 -131.889277 114.407558 -0.000000 0.427693 0.402103 -0.367850
0.205000 63.193568 229.439123 -0.000000 0.145538 0.241229 -0.124089 -131.691864 114.278769 -0.000000 0.427657 0.402155 -0.367854
0.210000 62.955287 229.216882 -0.000000 0.145576 0.241169 -0.124072 -131.491277 114.167346 -0.000000 0.427617 0.402179 -0.367854
0.215000 62.661629 229.035698 -0.000000 0.145606 0.241125 -0.124073 -131.309802 114.087971 -0.000000 0.427591 0.402228 -0.367850
0.220000 62.362726 228.912806 -0.000000 0.145627 0.241083 -0.124073 -131.159014 114.052015 -0.000000 0.427559 0.402273 -0.367838
0.225000 62.126863 228.859014 -0.000000 0.145641 0.241036 -0.124087 -131.026005 114.074650 -0.000000 0.427542 0.402294 -0.367851
0.230000 61.974021 228.879431 -0.000000 0.145651 0.241005 -0.124091 -130.906612 114.143805 -0.000000 0.427524 0.402337 -0.367840
0.235000 61.952531 228.943107 -0.000000 0.145640 0.240980 -0.124100 -130.782872 114.265890 -0.000000 0.427522 0.402355 -0.367836
0.240000 62.015191 229.030560 -0.000000 0.145641 0.240964 -0.124111 -130.694603 114.391696 -0.000000 0.427512 0.402376 -0.367839
0.245000 62.163064 229.119796 -0.000000 0.145658 0.240957 -0.124089 -130.655314 114.497941 -0.000000 0.427510 0.402383 -0.367839
0.250000 62.397967 229.201705 -0.000000 0.145641 0.240968 -0.124094 -130.657858 114.569678 -0.000000 0.427532 0.402397 -0.367826
0.255000 62.657675 229.276409 -0.000000 0.145643 0.240965 -0.124085 -130.705921 114.577625 -0.000000 0.427534 0.402390 -0.367836
0.260000 62.894176 229.323493 -0.000000 0.145642 0.240965 -0.124061 -130.787858 114.525318 -0.000000 0.427558 0.402416 -0.367831
0.265000 63.107888 229.311029 -0.000000 0.145625 0.240983 -0.124075 -130.873009 114.453630 -0.000000 0.427577 0.402410 -0.367819
0.270000 63.242866 229.244645 -0.000000 0.145609 0.241002 -0.124078 -130.971720 114.360510 -0.000000 0.427597 0.402401 -0.367846
0.275000 63.290238 229.141429 -0.000000 0.145589 0.241004 -0.124065 -131.082757 114.247848 -0.000000 0.427614 0.402391 -0.367835
0.280000 63.275033 229.021353 -0.000000 0.145562 0.241001 -0.124092 -131.195245 114.114056 -0.000000 0.427633 0.402389 -0.367833
0.285000 63.231270 228.898716 -0.000000 0.145566 0.241003 -0.124085 -131.296794 113.950747 -0.000000 0.427648 0.402374 -0.367840
0.290000 63.209151 228.771933 -0.000000 0.145570 0.241030 -0.124096 -131.367828 113.765172 -0.000000 0.427656 0.402348 -0.367849
0.295000 63.193244 228.648196 -0.000000 0.145558 0.241025 -0.124104 -131.427405 113.545983 -0.000000 0.427669 0.402339 -0.367845
0.300000 63.219768 228.511302 -0.000000 0.145575 0.241050 -0.124087 -131.476051 113.330275 -0.000000 0.427672 0.402335 -0.367837
0.305000 63.243534 228.350853 -0.000000 0.145617 0.241041 -0.124078 -131.546882 113.124265 -0.000000 0.427657 0.402319 -0.367847
0.310000 63.265272 228.129958 -0.000000 0.145614 0.241057 -0.124077 -131.625330 112.973990 -0.000000 0.427651 0.402325 -0.367849
0.315000 63.181007 227.850428 -0.000000 0.145626 0.241034 -0.124080 -131.722042 112.866553 -0.000000 0.427638 0.402342 -0.367848
0.320000 63.032725 227.504321 -0.000000 0.145661 0.241036 -0.124074 -131.768740 112.855775 -0.000000 0.427613 0.402323 -0.367849
0.325000 62.790822 227.129075 -0.000000 0.145672 0.241028 -0.124090 -131.760197 112.925836 -0.000000 0.427589 0.402325 -0.367853
0.330000 62.496071 226.749962 -0.000000 0.145665 0.241039 -0.124101 -131.698671 113.076948 -0.000000 0.427561 0.402326 -0.367843
0.335000 62.135090 226.407973 -0.000000 0.145672 0.241024 -0.124089 -131.634288 113.263717 -0.000000 0.427544 0.402328 -0.367839
0.340000 61.790944 226.117548 -0.000000 0.145685 0.241048 -0.124096 -131.564345 113.490708 -0.000000 0.427515 0.402313 -0.367841
0.345000 61.488190 225.904885 -0.000000 0.145682 0.241065 -0.124118 -131.505908 113.726523 -0.000000 0.427511 0.402295 -0.367835
